# xmcd CD database file
#
# Track frame offsets:
#	150
#	10202
#	34312
#	66862
#	86787
#	112147
#	122370
#	137547
#	147307
#	159100
#	167820
#	185182
#
# Disc length: 3055 seconds
#
# Revision: 2
# Processed by: cddbd v1.5.1PL0 Copyright (c) Steve Scherf et al.
# Submitted via: CDex 1.51
#
DISCID=a60bed0c
DTITLE=Shoji Tabuchi - Shoji Tabuchi Live from Branson
DYEAR=1995
DGENRE=Other
TTITLE0=Intro and Black Mountain Rag
TTITLE1=Medley: Bob WIlls, Hank Williams
TTITLE2=Medley: The Way We Were, Memory, Through the Eyes of Love
TTITLE3=Lady Be Good
TTITLE4=Medley: Bach Minuet 3, Boil Them Cabbage Down, Vivaldi Violin Concerto in A Minor
TTITLE5=Big Mamou
TTITLE6=Once More
TTITLE7=Somewhere My Love
TTITLE8=Jambalaya
TTITLE9=Hey, Good Lookin'
TTITLE10=Old Rugged Cross
TTITLE11=Medley: Humoresque, Braham's Lullaby, Mozart Symphony, Orange Blossom Special
EXTD=YEAR: 1995
EXTT0=
EXTT1=
EXTT2=
EXTT3=
EXTT4=
EXTT5=
EXTT6=
EXTT7=
EXTT8=
EXTT9=
EXTT10=
EXTT11=
PLAYORDER=
